<svg id="SvgjsSvg1001" width="288" height="288" xmlns="http://www.w3.org/2000/svg" version="1.1" xmlns:xlink="http://www.w3.org/1999/xlink" xmlns:svgjs="http://svgjs.com/svgjs"><defs id="SvgjsDefs1002"></defs><g id="SvgjsG1008" transform="matrix(0.9167,0,0,0.9167,11.995177438735965,11.995200000000011)"><svg xmlns="http://www.w3.org/2000/svg" enable-background="new 0 0 512 512" viewBox="0 0 512 512" width="288" height="288"><path d="M256 288.389c-153.837 0-238.56 72.776-238.56 204.925 0 10.321 8.365 18.686 18.686 18.686h439.747c10.321 0 18.686-8.365 18.686-18.686C494.56 361.172 409.837 288.389 256 288.389zM55.492 474.628c7.35-98.806 74.713-148.866 200.508-148.866s193.159 50.06 200.515 148.866H55.492zM256 0c-70.665 0-123.951 54.358-123.951 126.437 0 74.19 55.604 134.54 123.951 134.54s123.951-60.35 123.951-134.534C379.951 54.358 326.665 0 256 0zM256 223.611c-47.743 0-86.579-43.589-86.579-97.168 0-51.611 36.413-89.071 86.579-89.071 49.363 0 86.579 38.288 86.579 89.071C342.579 180.022 303.743 223.611 256 223.611z" fill="#929295" class="color000 svgShape"></path></svg></g></svg>