<svg id="SvgjsSvg1001" width="288" height="288" xmlns="http://www.w3.org/2000/svg" version="1.1" xmlns:xlink="http://www.w3.org/1999/xlink" xmlns:svgjs="http://svgjs.com/svgjs"><defs id="SvgjsDefs1002"></defs><g id="SvgjsG1008" transform="matrix(0.9167,0,0,0.9167,11.995225421142578,11.995172990036025)"><svg xmlns="http://www.w3.org/2000/svg" enable-background="new 0 0 469.44 469.44" viewBox="0 0 469.44 469.44" width="288" height="288"><path d="M231.147,160.373l67.2,67.2l0.32-3.52c0-35.307-28.693-64-64-64L231.147,160.373z" fill="#929295" class="color000 svgShape"></path><path d="M234.667 117.387c58.88 0 106.667 47.787 106.667 106.667 0 13.76-2.773 26.88-7.573 38.933l62.4 62.4c32.213-26.88 57.6-61.653 73.28-101.333-37.013-93.653-128-160-234.773-160-29.867 0-58.453 5.333-85.013 14.933l46.08 45.973C207.787 120.267 220.907 117.387 234.667 117.387zM21.333 59.253l48.64 48.64 9.707 9.707C44.48 145.12 16.64 181.707 0 224.053c36.907 93.653 128 160 234.667 160 33.067 0 64.64-6.4 93.547-18.027l9.067 9.067 62.187 62.293 27.2-27.093L48.533 32.053 21.333 59.253zM139.307 177.12l32.96 32.96c-.96 4.587-1.6 9.173-1.6 13.973 0 35.307 28.693 64 64 64 4.8 0 9.387-.64 13.867-1.6l32.96 32.96c-14.187 7.04-29.973 11.307-46.827 11.307C175.787 330.72 128 282.933 128 224.053 128 207.2 132.267 191.413 139.307 177.12z" fill="#929295" class="color000 svgShape"></path></svg></g></svg>