<svg id="SvgjsSvg1019" width="288" height="288" xmlns="http://www.w3.org/2000/svg" version="1.1" xmlns:xlink="http://www.w3.org/1999/xlink" xmlns:svgjs="http://svgjs.com/svgjs"><defs id="SvgjsDefs1020"></defs><g id="SvgjsG1021" transform="matrix(0.9167,0,0,0.9167,11.995200000000011,11.995200000000011)"><svg xmlns="http://www.w3.org/2000/svg" viewBox="0 0 24 24" width="288" height="288"><path d="M12,13a1.49,1.49,0,0,0-1,2.61V17a1,1,0,0,0,2,0V15.61A1.49,1.49,0,0,0,12,13Zm5-4V7A5,5,0,0,0,7,7V9a3,3,0,0,0-3,3v7a3,3,0,0,0,3,3H17a3,3,0,0,0,3-3V12A3,3,0,0,0,17,9ZM9,7a3,3,0,0,1,6,0V9H9Zm9,12a1,1,0,0,1-1,1H7a1,1,0,0,1-1-1V12a1,1,0,0,1,1-1H17a1,1,0,0,1,1,1Z" fill="#929295" class="color000 svgShape"></path></svg></g></svg>