<?xml version="1.0" encoding="utf-8"?>
<!-- Generator: Adobe Illustrator 16.0.0, SVG Export Plug-In . SVG Version: 6.00 Build 0)  -->
<!DOCTYPE svg PUBLIC "-//W3C//DTD SVG 1.1//EN" "http://www.w3.org/Graphics/SVG/1.1/DTD/svg11.dtd">
<svg version="1.1" id="圖層_1" xmlns="http://www.w3.org/2000/svg" xmlns:xlink="http://www.w3.org/1999/xlink" x="0px" y="0px"
	 width="1190.55px" height="841.89px" viewBox="0 0 1190.55 841.89" enable-background="new 0 0 1190.55 841.89"
	 xml:space="preserve">
<g>
	<path fill-rule="evenodd" clip-rule="evenodd" fill="#499AD5" d="M411.344,331.542c-0.033-2.338-1.081-3.731-3.55-3.816
		c-3.025-0.105-4.183,1.565-4.004,4.344c0.16,2.463,1.746,3.383,4.035,3.312C410.285,335.303,411.344,333.9,411.344,331.542z"/>
	<path fill-rule="evenodd" clip-rule="evenodd" fill="#40ACC5" d="M495.448,375.467c0.549,0.255,1.019,0.611,1.411,1.07
		c0.326,2.292,0.665,4.571,3.621,4.938c11.879,11.044,23.771,22.076,38.597,29.215c2.26,1.087,4.022,2.302,3.79,5.131
		c-0.243,2.985-2.708,3.889-4.849,4.241c-10.95,1.799-20.74,6.808-30.698,11.152c-21.393,9.328-40.168,21.973-48.953,44.969
		c-12.356,32.338,5.462,64.236,39.593,70.836c29.146,5.635,57.17-0.404,84.799-9.283c16.983-5.459,33.647-11.902,52.093-10.932
		c21.032,1.107,38.277,14.402,42.664,33.887c4.138,18.387-7.038,37.74-23.695,48.988c-68.663,46.357-181.031,20.107-234.856-52.559
		c-21.14-28.541-35.593-59.645-43.154-94.105c-4.614-21.035-5.564-42.361-3.772-63.811c7.568-6.339,1.826-14.649,3.242-21.902
		c2.138-14.379,4.851-28.605,11.227-41.844c6.676,1.071,9.87-1.181,9.162-8.511c-0.427-4.43,0.427-5.262,2.54-4.462
		c5.878,2.222,4.985-1.85,5.361-5.035c0.575-4.888-1.465-10.197,2.497-16.464c4.254,19.193,13.591,31.684,31.974,36.1
		c4.465,1.072,9.083,4.631,8.994,9.568c-0.185,10.254,5.898,11.415,13.546,10.748c6.159-0.536,8.625,1.441,9.379,8.005
		c0.546,4.745,2.574,10.61,9.946,10.119c3.032-0.202,4.516,2.252,5.889,4.631c1.496,2.596,4.014,4.15,6.612,2.329
		c4.396-3.081-2.076-2.687-1.709-4.385C491.227,375.646,493.467,375.646,495.448,375.467z M495.448,375.467
		c-1.981,0.18-4.221,0.179-4.75,2.633c-0.366,1.698,6.106,1.304,1.709,4.385c-2.598,1.821-5.116,0.267-6.612-2.329
		c-1.374-2.379-2.857-4.833-5.889-4.631c-7.372,0.491-9.399-5.374-9.946-10.119c-0.754-6.563-3.22-8.541-9.379-8.005
		c-7.648,0.667-13.731-0.494-13.546-10.748c0.089-4.938-4.529-8.496-8.994-9.568c-18.383-4.416-27.72-16.906-31.974-36.1
		c-3.962,6.267-1.922,11.576-2.497,16.464c-0.376,3.185,0.517,7.256-5.361,5.035c-2.113-0.8-2.966,0.033-2.54,4.462
		c0.708,7.331-2.486,9.582-9.162,8.511c4.563-18.683,15.069-34.437,25.86-49.727c24.265-34.381,56.528-59.171,95.096-75.819
		c3.924-1.694,8.042-2.932,12.007-4.538c2.938-1.191,5.342-0.643,6.751,2.125c1.551,3.048,0.826,5.733-2.267,7.587
		c-19.654,11.781-32.42,29.853-41.407,49.937c-11.988,26.796-12.541,54.824-1.216,82.328
		C485.313,357.02,490.702,366.111,495.448,375.467z"/>
	<g>
		<path fill-rule="evenodd" clip-rule="evenodd" fill="#3FB7D1" d="M593.124,371.671c-39.667,1.01-64.02-30.887-63.894-66.742
			c0.119-33.874,30.553-66.593,68.472-64.05c35.1,2.353,63.192,27.503,62.901,67.05C660.35,342.457,633.157,373.438,593.124,371.671
			z"/>
		<path fill-rule="evenodd" clip-rule="evenodd" fill="#3FB7D1" d="M599.778,426.465c10.317-5.474,22.079-6.074,33.009-9.745
			c25.475-8.561,46.321-22.907,62.25-44.319c29.305-39.39,27.545-90.883,1.701-125.032c-8.062-10.65-15.52-22.024-21.459-33.961
			c-16.852-33.87,7.463-72.705,42.204-72.995c11.455-0.096,22.803,0.363,33.931,5.561c17.866,8.344,28.081,25.031,23.697,42.82
			c-2.997,12.163-17.301,19.747-30.056,17.756c-5.797-0.905-13.04-3.896-17.656-7.528c-8.641-6.797-17.503,1.556-19.134,5.661
			c-3.186,8.015-1.741,15.302,7.289,21.913c14.836,10.859,29.663,21.776,42.127,35.401c20.744,22.679,37.279,47.909,48.12,76.97
			c13.491,36.168,16.329,73.57,11.097,111.045c-2.947,21.096-8.395,42.059-18.844,61.939c-7.901,15.029-16.6,29.148-26.342,42.832
			c-2.051,2.883-4.386,6.514-8.803,4.152c-4.447-2.377-1.084-6.063-0.546-8.846c9.836-50.971-20.538-87.602-72.306-90.854
			c-17.559-1.102-34.921,1.072-51.746,6.695c-2.463,0.824-5.192,0.848-7.795,1.238c-14.91,1.219-30.266-3.387-44.799,3.66
			c-2.117,1.025-6.027,1.063-7.729-0.24c-7.467-5.723-15.904-2.783-23.896-3.596c-3.279-0.334-6.964,0.977-9.682-3.928
			c9.859,0,19.72,0,29.361,0c0.261-4.902-4.211-3.109-5.124-5.301c3.479-2.961,6.863-2.826,10.151-2.549
			c9.516,0.803,18.26-2.721,27.178-4.938c8.009-1.992,10.723-8.836,10.467-16.135c-0.293-8.309-7.244-6.852-12.746-7.049
			C602.387,427.049,601.086,426.684,599.778,426.465z M597.584,426.926c-0.99,0.076-1.981,0.154-2.974,0.232
			c-20.967,3.061-42.149,5.568-60.792,16.762c-11.37,6.826-16.467,18.35-13.525,28.393c2.447,8.352,15.58,15.484,27.239,14.936
			c11.479-0.535,22.967-0.578,34.001-4.682c16.054-5.967,33.341-8.064,48.983-15.396c-14.91,1.219-30.266-3.387-44.799,3.66
			c-2.117,1.025-6.027,1.063-7.729-0.24c-7.467-5.723-15.904-2.783-23.896-3.596c-3.279-0.334-6.964,0.977-9.682-3.928
			c9.859,0,19.72,0,29.361,0c0.261-4.902-4.211-3.109-5.124-5.301c3.479-2.961,6.863-2.826,10.151-2.549
			c9.516,0.803,18.26-2.721,27.178-4.938c8.009-1.992,10.723-8.836,10.467-16.135c-0.293-8.309-7.244-6.852-12.746-7.049
			c-1.313-0.047-2.613-0.412-3.921-0.631C599.047,426.619,598.314,426.771,597.584,426.926z"/>
	</g>
	<path fill-rule="evenodd" clip-rule="evenodd" fill="#3FB7D1" d="M375.28,377.301c-1.416,7.253,4.326,15.563-3.242,21.902
		C371.788,391.704,372.458,384.344,375.28,377.301z"/>
	<path fill-rule="evenodd" clip-rule="evenodd" fill="#3FB7D1" d="M500.479,381.475c-2.956-0.366-3.294-2.646-3.621-4.938
		C499.453,377.165,499.61,379.581,500.479,381.475z"/>
	<path fill-rule="evenodd" clip-rule="evenodd" fill="#3FB7D1" d="M597.584,426.926c-0.99,0.076-1.981,0.154-2.974,0.232
		C595.531,426.221,596.519,426.078,597.584,426.926z"/>
</g>
<path display="none" fill-rule="evenodd" clip-rule="evenodd" fill="#35A45D" d="M290.998,521.614
	c-3.575,31.041-26.82,59.314-62.619,67.177s-51.626,9.336-59.958,17.933c-8.332,8.598-6.389,10.973-5.86,16.451
	c0.529,5.48,8.675,12.364,29.185,9.131c20.51-3.234,29.943-10.596,52.185-14.54s45.513-1.866,55.627,3.886
	c10.115,5.754,23.198,19.587,22.781,32.254c-0.417,12.666,1.083,39.416-22.25,53.75c-23.333,14.333-38.667,16.333-49,18.333
	s-44.332,2.017-44.332,2.017s38.878-5.678,53.605-24.681s3.329-42.226-19.639-44.114s-48.396,13.125-60.182,12.785
	s-39.34,12.817-55.729-14.595s-0.02-45.331,14.61-53.257c14.63-7.924,26.977-13.971,32.78-14.855c5.804-0.883,6.907-4.018,1.6-7.063
	c-5.307-3.043-23.254-11.809-32.233-31.48c-8.979-19.674-14.35-32.105-4.998-60.598c9.352-28.493,25.764-33.522,28.391-35.675
	c2.627-2.15,19.134-13.053,46.339-12.686s47.629,4.217,55.711,16.864c0,0-13.02-21.327-2.096-36.704s23.027-17.44,38.6-15.867
	s26.207,15.29,26.64,22.932c0.433,7.642-2.16,15.935-9.613,18.372c-7.454,2.437-15.354,0.82-18.688-1.262
	c0,0-6.856-7.313-12.27-2.557s-8.798,11.219-7.58,14.506C285.342,467.07,294.573,490.575,290.998,521.614z"/>
</svg>
